<mxfile host="Electron" modified="2024-01-22T15:23:19.062Z" agent="Mozilla/5.0 (Windows NT 10.0; Win64; x64) AppleWebKit/537.36 (KHTML, like Gecko) draw.io/22.1.21 Chrome/120.0.6099.109 Electron/28.1.0 Safari/537.36" etag="Q1C8byQpWJ-UTI45tbii" version="22.1.21" type="device">
  <diagram name="Page-1" id="-cdMKVZTHbEmVoWQB-JH">
    <mxGraphModel dx="2709" dy="1235" grid="1" gridSize="10" guides="1" tooltips="1" connect="1" arrows="1" fold="1" page="0" pageScale="1" pageWidth="827" pageHeight="1169" math="0" shadow="0">
      <root>
        <mxCell id="0" />
        <mxCell id="1" parent="0" />
        <mxCell id="wIbjY3GxIgkLPjTaqCq6-24" value="" style="rounded=0;whiteSpace=wrap;html=1;fontSize=16;dashed=1;dashPattern=8 8;" vertex="1" parent="1">
          <mxGeometry x="-440" y="230" width="1390" height="610" as="geometry" />
        </mxCell>
        <mxCell id="wIbjY3GxIgkLPjTaqCq6-16" style="edgeStyle=none;curved=1;rounded=0;orthogonalLoop=1;jettySize=auto;html=1;exitX=1;exitY=0.25;exitDx=0;exitDy=0;entryX=0;entryY=0.25;entryDx=0;entryDy=0;fontSize=12;startSize=8;endSize=8;" edge="1" parent="1" source="wIbjY3GxIgkLPjTaqCq6-7" target="h9SOfSR982c2kOE_p3fW-1">
          <mxGeometry relative="1" as="geometry" />
        </mxCell>
        <mxCell id="wIbjY3GxIgkLPjTaqCq6-17" value="&lt;font style=&quot;font-size: 12px;&quot;&gt;comandos&lt;/font&gt;" style="edgeLabel;html=1;align=center;verticalAlign=middle;resizable=0;points=[];fontSize=16;" vertex="1" connectable="0" parent="wIbjY3GxIgkLPjTaqCq6-16">
          <mxGeometry x="-0.3726" y="-1" relative="1" as="geometry">
            <mxPoint x="15" y="-23" as="offset" />
          </mxGeometry>
        </mxCell>
        <mxCell id="wIbjY3GxIgkLPjTaqCq6-7" value="" style="rounded=0;whiteSpace=wrap;html=1;fontSize=16;fillColor=#ffe6cc;strokeColor=#d79b00;" vertex="1" parent="1">
          <mxGeometry x="-400" y="270" width="360" height="370" as="geometry" />
        </mxCell>
        <mxCell id="h9SOfSR982c2kOE_p3fW-1" value="FSM" style="whiteSpace=wrap;html=1;aspect=fixed;fontSize=16;fillColor=#f8cecc;strokeColor=#b85450;" parent="1" vertex="1">
          <mxGeometry x="39" y="270" width="360" height="360" as="geometry" />
        </mxCell>
        <mxCell id="h9SOfSR982c2kOE_p3fW-2" value="" style="endArrow=none;dashed=1;html=1;dashPattern=1 3;strokeWidth=2;rounded=0;fontSize=12;startSize=8;endSize=8;curved=1;" parent="1" edge="1">
          <mxGeometry width="50" height="50" relative="1" as="geometry">
            <mxPoint x="-280" y="210" as="sourcePoint" />
            <mxPoint x="760" y="210" as="targetPoint" />
          </mxGeometry>
        </mxCell>
        <mxCell id="h9SOfSR982c2kOE_p3fW-5" value="" style="endArrow=classic;html=1;rounded=0;fontSize=12;startSize=8;endSize=8;curved=1;exitX=0.523;exitY=0.001;exitDx=0;exitDy=0;exitPerimeter=0;" parent="1" edge="1" source="wIbjY3GxIgkLPjTaqCq6-7">
          <mxGeometry width="50" height="50" relative="1" as="geometry">
            <mxPoint x="-210.99999999999997" y="230.00000000000006" as="sourcePoint" />
            <mxPoint x="-210.6" y="190.8" as="targetPoint" />
          </mxGeometry>
        </mxCell>
        <mxCell id="h9SOfSR982c2kOE_p3fW-6" value="&lt;p style=&quot;line-height: 40%;&quot;&gt;&lt;font style=&quot;font-size: 8px;&quot;&gt;RX&amp;amp;TX lines&lt;br&gt;&lt;/font&gt;&lt;/p&gt;" style="rounded=0;whiteSpace=wrap;html=1;fontSize=16;fillColor=#d5e8d4;strokeColor=#82b366;" parent="1" vertex="1">
          <mxGeometry x="-250" y="150" width="80" height="40" as="geometry" />
        </mxCell>
        <mxCell id="h9SOfSR982c2kOE_p3fW-7" value="" style="endArrow=classic;html=1;rounded=0;fontSize=12;startSize=8;endSize=8;curved=1;exitX=0.5;exitY=0;exitDx=0;exitDy=0;" parent="1" edge="1">
          <mxGeometry width="50" height="50" relative="1" as="geometry">
            <mxPoint x="701.5" y="270" as="sourcePoint" />
            <mxPoint x="701.4" y="190.8" as="targetPoint" />
          </mxGeometry>
        </mxCell>
        <mxCell id="h9SOfSR982c2kOE_p3fW-8" value="&lt;p style=&quot;line-height: 40%;&quot;&gt;&lt;font style=&quot;font-size: 8px;&quot;&gt;LCDs:&lt;br&gt;segments&lt;br&gt;&amp;amp; select&lt;br&gt;&lt;/font&gt;&lt;/p&gt;" style="rounded=0;whiteSpace=wrap;html=1;fontSize=16;fillColor=#d5e8d4;strokeColor=#82b366;" parent="1" vertex="1">
          <mxGeometry x="682" y="150" width="39" height="40" as="geometry" />
        </mxCell>
        <mxCell id="h9SOfSR982c2kOE_p3fW-9" value="" style="endArrow=classic;html=1;rounded=0;fontSize=12;startSize=8;endSize=8;curved=1;exitX=0.834;exitY=-0.001;exitDx=0;exitDy=0;exitPerimeter=0;" parent="1" edge="1" source="h9SOfSR982c2kOE_p3fW-1">
          <mxGeometry width="50" height="50" relative="1" as="geometry">
            <mxPoint x="339" y="230.00000000000006" as="sourcePoint" />
            <mxPoint x="339.4" y="190.8" as="targetPoint" />
          </mxGeometry>
        </mxCell>
        <mxCell id="h9SOfSR982c2kOE_p3fW-10" value="&lt;p style=&quot;line-height: 40%;&quot;&gt;&lt;font style=&quot;font-size: 8px;&quot;&gt;LEDS&lt;br&gt;status &amp;amp; debugging&lt;/font&gt;&lt;/p&gt;" style="rounded=0;whiteSpace=wrap;html=1;fontSize=16;fillColor=#d5e8d4;strokeColor=#82b366;" parent="1" vertex="1">
          <mxGeometry x="320" y="150" width="39" height="40" as="geometry" />
        </mxCell>
        <mxCell id="h9SOfSR982c2kOE_p3fW-13" value="&lt;font style=&quot;font-size: 10px;&quot;&gt;IO - Constrains&lt;/font&gt;" style="text;html=1;align=center;verticalAlign=middle;resizable=0;points=[];autosize=1;strokeColor=none;fillColor=none;fontSize=16;" parent="1" vertex="1">
          <mxGeometry x="-375" y="190" width="90" height="30" as="geometry" />
        </mxCell>
        <mxCell id="h9SOfSR982c2kOE_p3fW-23" value="&lt;font style=&quot;font-size: 8px;&quot;&gt;16&lt;/font&gt;" style="text;html=1;align=center;verticalAlign=middle;resizable=0;points=[];autosize=1;strokeColor=none;fillColor=none;fontSize=16;" parent="1" vertex="1">
          <mxGeometry x="339" y="200" width="30" height="30" as="geometry" />
        </mxCell>
        <mxCell id="h9SOfSR982c2kOE_p3fW-24" value="" style="endArrow=none;html=1;rounded=0;fontSize=12;startSize=8;endSize=8;curved=1;" parent="1" edge="1">
          <mxGeometry width="50" height="50" relative="1" as="geometry">
            <mxPoint x="349.5" y="220" as="sourcePoint" />
            <mxPoint x="329.5" y="220" as="targetPoint" />
          </mxGeometry>
        </mxCell>
        <mxCell id="h9SOfSR982c2kOE_p3fW-25" value="" style="endArrow=none;html=1;rounded=0;fontSize=12;startSize=8;endSize=8;curved=1;" parent="1" edge="1">
          <mxGeometry width="50" height="50" relative="1" as="geometry">
            <mxPoint x="711.5" y="220" as="sourcePoint" />
            <mxPoint x="691.5" y="220" as="targetPoint" />
          </mxGeometry>
        </mxCell>
        <mxCell id="h9SOfSR982c2kOE_p3fW-26" value="" style="endArrow=none;html=1;rounded=0;fontSize=12;startSize=8;endSize=8;curved=1;" parent="1" edge="1">
          <mxGeometry width="50" height="50" relative="1" as="geometry">
            <mxPoint x="-200" y="220" as="sourcePoint" />
            <mxPoint x="-220" y="220" as="targetPoint" />
          </mxGeometry>
        </mxCell>
        <mxCell id="h9SOfSR982c2kOE_p3fW-28" value="&lt;font style=&quot;font-size: 8px;&quot;&gt;8&amp;amp;8&lt;/font&gt;" style="text;html=1;align=center;verticalAlign=middle;resizable=0;points=[];autosize=1;strokeColor=none;fillColor=none;fontSize=16;" parent="1" vertex="1">
          <mxGeometry x="700" y="200" width="40" height="30" as="geometry" />
        </mxCell>
        <mxCell id="h9SOfSR982c2kOE_p3fW-29" value="&lt;font style=&quot;font-size: 8px;&quot;&gt;2&lt;/font&gt;" style="text;html=1;align=center;verticalAlign=middle;resizable=0;points=[];autosize=1;strokeColor=none;fillColor=none;fontSize=16;" parent="1" vertex="1">
          <mxGeometry x="-210" y="200" width="30" height="30" as="geometry" />
        </mxCell>
        <mxCell id="h9SOfSR982c2kOE_p3fW-52" value="" style="edgeStyle=none;curved=1;rounded=0;orthogonalLoop=1;jettySize=auto;html=1;fontSize=12;startSize=8;endSize=8;entryX=0.601;entryY=1.001;entryDx=0;entryDy=0;fillColor=#d5e8d4;strokeColor=#82b366;entryPerimeter=0;" parent="1" source="h9SOfSR982c2kOE_p3fW-51" target="wIbjY3GxIgkLPjTaqCq6-3" edge="1">
          <mxGeometry relative="1" as="geometry">
            <mxPoint x="-340" y="589.9999999999998" as="targetPoint" />
          </mxGeometry>
        </mxCell>
        <mxCell id="h9SOfSR982c2kOE_p3fW-51" value="&lt;p style=&quot;line-height: 50%;&quot;&gt;&lt;font style=&quot;font-size: 8px;&quot;&gt;Entidad pÃºblica sin licencia&lt;/font&gt;&lt;/p&gt;" style="text;html=1;strokeColor=#82b366;fillColor=none;align=center;verticalAlign=middle;whiteSpace=wrap;rounded=0;fontSize=16;" parent="1" vertex="1">
          <mxGeometry x="-320" y="575" width="60" height="30" as="geometry" />
        </mxCell>
        <mxCell id="h9SOfSR982c2kOE_p3fW-55" value="LCD control" style="rounded=0;whiteSpace=wrap;html=1;fontSize=16;fillColor=#ffe6cc;strokeColor=#d79b00;" parent="1" vertex="1">
          <mxGeometry x="481" y="270" width="429" height="170" as="geometry" />
        </mxCell>
        <mxCell id="h9SOfSR982c2kOE_p3fW-56" value="Timer (count down)&lt;br style=&quot;border-color: var(--border-color); font-size: 12px;&quot;&gt;&lt;span style=&quot;font-size: 12px;&quot;&gt;Natural, 8b&lt;/span&gt;" style="rounded=0;whiteSpace=wrap;html=1;fontSize=16;fillColor=#fff2cc;strokeColor=#d6b656;" parent="1" vertex="1">
          <mxGeometry x="198" y="550" width="201" height="80" as="geometry" />
        </mxCell>
        <mxCell id="h9SOfSR982c2kOE_p3fW-74" value="" style="endArrow=classic;html=1;rounded=0;fontSize=12;startSize=8;endSize=8;curved=1;entryX=0.005;entryY=0.718;entryDx=0;entryDy=0;exitX=0.999;exitY=0.338;exitDx=0;exitDy=0;exitPerimeter=0;entryPerimeter=0;" parent="1" target="h9SOfSR982c2kOE_p3fW-55" edge="1" source="h9SOfSR982c2kOE_p3fW-1">
          <mxGeometry width="50" height="50" relative="1" as="geometry">
            <mxPoint x="401.36" y="391.26" as="sourcePoint" />
            <mxPoint x="445" y="391.5" as="targetPoint" />
          </mxGeometry>
        </mxCell>
        <mxCell id="h9SOfSR982c2kOE_p3fW-75" value="" style="endArrow=none;html=1;rounded=0;fontSize=12;startSize=8;endSize=8;curved=1;" parent="1" edge="1">
          <mxGeometry width="50" height="50" relative="1" as="geometry">
            <mxPoint x="460" y="381.27" as="sourcePoint" />
            <mxPoint x="460.25" y="401.71999999999997" as="targetPoint" />
          </mxGeometry>
        </mxCell>
        <mxCell id="h9SOfSR982c2kOE_p3fW-76" value="&lt;font style=&quot;font-size: 8px;&quot;&gt;Remaining&lt;/font&gt;" style="text;html=1;strokeColor=none;fillColor=none;align=center;verticalAlign=middle;whiteSpace=wrap;rounded=0;fontSize=16;" parent="1" vertex="1">
          <mxGeometry x="440" y="400" width="41" height="20" as="geometry" />
        </mxCell>
        <mxCell id="h9SOfSR982c2kOE_p3fW-80" value="" style="shape=flexArrow;endArrow=classic;html=1;rounded=0;fontSize=12;startSize=8;endSize=13.93;curved=1;endWidth=47;width=118;fillColor=#e1d5e7;strokeColor=#9673a6;" parent="1" edge="1">
          <mxGeometry width="50" height="50" relative="1" as="geometry">
            <mxPoint x="-439.99999999999955" y="460" as="sourcePoint" />
            <mxPoint x="-519.9999999999995" y="460" as="targetPoint" />
          </mxGeometry>
        </mxCell>
        <mxCell id="h9SOfSR982c2kOE_p3fW-81" value="A&lt;br&gt;STM32" style="edgeLabel;html=1;align=center;verticalAlign=middle;resizable=0;points=[];fontSize=16;labelBackgroundColor=none;" parent="h9SOfSR982c2kOE_p3fW-80" vertex="1" connectable="0">
          <mxGeometry x="-0.225" y="18" relative="1" as="geometry">
            <mxPoint x="-89" y="-18" as="offset" />
          </mxGeometry>
        </mxCell>
        <mxCell id="h9SOfSR982c2kOE_p3fW-82" value="Freq. divider" style="rounded=0;whiteSpace=wrap;html=1;fontSize=16;fillColor=#d5e8d4;strokeColor=#82b366;" parent="1" vertex="1">
          <mxGeometry x="481" y="400" width="80" height="40" as="geometry" />
        </mxCell>
        <mxCell id="h9SOfSR982c2kOE_p3fW-83" value="BCD2seg&lt;br&gt;&lt;font style=&quot;font-size: 11px;&quot;&gt;+ special chars&lt;/font&gt;" style="rounded=0;whiteSpace=wrap;html=1;fontSize=16;fillColor=#dae8fc;strokeColor=#6c8ebf;" parent="1" vertex="1">
          <mxGeometry x="721" y="400" width="189" height="40" as="geometry" />
        </mxCell>
        <mxCell id="JUrOgLMB8Vm1zT61dbdL-1" value="Bin2BCD" style="rounded=0;whiteSpace=wrap;html=1;fontSize=16;fillColor=#dae8fc;strokeColor=#6c8ebf;" parent="1" vertex="1">
          <mxGeometry x="561" y="400" width="160" height="40" as="geometry" />
        </mxCell>
        <mxCell id="JUrOgLMB8Vm1zT61dbdL-25" value="Segments&lt;br&gt;Mux" style="rounded=0;whiteSpace=wrap;html=1;fontSize=16;fillColor=#fff2cc;strokeColor=#d6b656;" parent="1" vertex="1">
          <mxGeometry x="770" y="270" width="140" height="130" as="geometry" />
        </mxCell>
        <mxCell id="JUrOgLMB8Vm1zT61dbdL-36" value="&lt;h1&gt;&lt;span style=&quot;&quot;&gt;Leyenda&lt;/span&gt;&lt;/h1&gt;&lt;div&gt;&lt;font style=&quot;&quot; color=&quot;#97d077&quot;&gt;Verde: ya funciona o existe cÃ³digo que no requiere modificaciones&lt;/font&gt;&lt;/div&gt;&lt;div&gt;&lt;font style=&quot;&quot; color=&quot;#7ea6e0&quot;&gt;Azul: existe cÃ³digo que necesita modificaciones menores o integrarlo&lt;/font&gt;&lt;/div&gt;&lt;div&gt;&lt;font style=&quot;&quot; color=&quot;#ffd966&quot;&gt;Amarillo: existe cÃ³digo pero la dificultad de la modificaciÃ³n puede tomar un esfuerzo moderado&lt;/font&gt;&lt;/div&gt;&lt;div&gt;&lt;font style=&quot;&quot; color=&quot;#ffb570&quot;&gt;Naranja: esfuerzo moderado para el desarrollo&lt;/font&gt;&lt;/div&gt;&lt;div&gt;&lt;font style=&quot;&quot; color=&quot;#ea6b66&quot;&gt;Rojo: parte crÃ­tica del desarrollo&lt;/font&gt;&lt;/div&gt;" style="text;html=1;spacing=5;spacingTop=-20;whiteSpace=wrap;overflow=hidden;rounded=0;fontSize=16;labelBackgroundColor=none;fillColor=#f5f5f5;fontColor=#333333;strokeColor=#666666;" parent="1" vertex="1">
          <mxGeometry x="590" y="530" width="280" height="270" as="geometry" />
        </mxCell>
        <mxCell id="JUrOgLMB8Vm1zT61dbdL-40" value="Freq. divider" style="rounded=0;whiteSpace=wrap;html=1;fontSize=16;fillColor=#d5e8d4;strokeColor=#82b366;" parent="1" vertex="1">
          <mxGeometry x="118" y="590" width="80" height="40" as="geometry" />
        </mxCell>
        <mxCell id="wIbjY3GxIgkLPjTaqCq6-1" value="&lt;span style=&quot;font-size: 8px;&quot;&gt;Text&lt;/span&gt;" style="text;html=1;strokeColor=none;fillColor=none;align=center;verticalAlign=middle;whiteSpace=wrap;rounded=0;fontSize=16;" vertex="1" parent="1">
          <mxGeometry x="419" y="310" width="41" height="10" as="geometry" />
        </mxCell>
        <mxCell id="wIbjY3GxIgkLPjTaqCq6-2" value="" style="endArrow=classic;html=1;rounded=0;fontSize=12;startSize=8;endSize=8;curved=1;exitX=0.999;exitY=0.159;exitDx=0;exitDy=0;exitPerimeter=0;" edge="1" parent="1" source="h9SOfSR982c2kOE_p3fW-1">
          <mxGeometry width="50" height="50" relative="1" as="geometry">
            <mxPoint x="400" y="328" as="sourcePoint" />
            <mxPoint x="480" y="328" as="targetPoint" />
          </mxGeometry>
        </mxCell>
        <mxCell id="wIbjY3GxIgkLPjTaqCq6-3" value="" style="rounded=0;whiteSpace=wrap;html=1;fontSize=16;fillColor=none;dashed=1;dashPattern=8 8;" vertex="1" parent="1">
          <mxGeometry x="-375" y="320" width="140" height="220" as="geometry" />
        </mxCell>
        <mxCell id="wIbjY3GxIgkLPjTaqCq6-4" value="UART_RX" style="rounded=0;whiteSpace=wrap;html=1;fontSize=16;fillColor=#d5e8d4;strokeColor=#82b366;" vertex="1" parent="1">
          <mxGeometry x="-365" y="340" width="120" height="60" as="geometry" />
        </mxCell>
        <mxCell id="wIbjY3GxIgkLPjTaqCq6-5" value="UART_TX" style="rounded=0;whiteSpace=wrap;html=1;fontSize=16;fillColor=#dae8fc;strokeColor=#6c8ebf;" vertex="1" parent="1">
          <mxGeometry x="-365" y="420" width="120" height="110" as="geometry" />
        </mxCell>
        <mxCell id="wIbjY3GxIgkLPjTaqCq6-6" value="&lt;font style=&quot;font-size: 14px;&quot;&gt;MÃ³dulo de GitHub GPL3.0&lt;/font&gt;" style="text;html=1;align=center;verticalAlign=middle;resizable=0;points=[];autosize=1;strokeColor=none;fillColor=none;fontSize=16;" vertex="1" parent="1">
          <mxGeometry x="-400" y="290" width="190" height="30" as="geometry" />
        </mxCell>
        <mxCell id="wIbjY3GxIgkLPjTaqCq6-10" value="" style="verticalLabelPosition=bottom;shadow=0;dashed=0;align=center;html=1;verticalAlign=top;shape=mxgraph.electrical.logic_gates.logic_gate;operation=xor;fontSize=16;" vertex="1" parent="1">
          <mxGeometry x="-186.25" y="310" width="50" height="30" as="geometry" />
        </mxCell>
        <mxCell id="wIbjY3GxIgkLPjTaqCq6-12" value="" style="verticalLabelPosition=bottom;shadow=0;dashed=0;align=center;html=1;verticalAlign=top;shape=mxgraph.electrical.logic_gates.logic_gate;operation=xor;negating=1;negSize=0.15;fontSize=16;" vertex="1" parent="1">
          <mxGeometry x="-186.25" y="420" width="50" height="30" as="geometry" />
        </mxCell>
        <mxCell id="wIbjY3GxIgkLPjTaqCq6-13" value="" style="shape=xor;whiteSpace=wrap;html=1;fontSize=16;" vertex="1" parent="1">
          <mxGeometry x="-180" y="360" width="37.5" height="50" as="geometry" />
        </mxCell>
        <mxCell id="wIbjY3GxIgkLPjTaqCq6-14" value="" style="shape=or;whiteSpace=wrap;html=1;fontSize=16;" vertex="1" parent="1">
          <mxGeometry x="-180" y="460" width="39" height="52" as="geometry" />
        </mxCell>
        <mxCell id="wIbjY3GxIgkLPjTaqCq6-15" value="" style="verticalLabelPosition=bottom;shadow=0;dashed=0;align=center;html=1;verticalAlign=top;shape=mxgraph.electrical.logic_gates.logic_gate;operation=and;negating=1;negSize=0.15;fontSize=16;" vertex="1" parent="1">
          <mxGeometry x="-190.5" y="520" width="60" height="36" as="geometry" />
        </mxCell>
        <mxCell id="wIbjY3GxIgkLPjTaqCq6-18" style="edgeStyle=none;curved=1;rounded=0;orthogonalLoop=1;jettySize=auto;html=1;exitX=1;exitY=0.5;exitDx=0;exitDy=0;entryX=-0.004;entryY=0.516;entryDx=0;entryDy=0;entryPerimeter=0;fontSize=12;startSize=8;endSize=8;" edge="1" parent="1" source="wIbjY3GxIgkLPjTaqCq6-7" target="h9SOfSR982c2kOE_p3fW-1">
          <mxGeometry relative="1" as="geometry" />
        </mxCell>
        <mxCell id="wIbjY3GxIgkLPjTaqCq6-19" value="&lt;font style=&quot;font-size: 12px;&quot;&gt;valores&lt;br&gt;convertidos&lt;/font&gt;" style="edgeLabel;html=1;align=center;verticalAlign=middle;resizable=0;points=[];fontSize=16;" vertex="1" connectable="0" parent="wIbjY3GxIgkLPjTaqCq6-18">
          <mxGeometry x="0.1464" relative="1" as="geometry">
            <mxPoint x="-5" y="-25" as="offset" />
          </mxGeometry>
        </mxCell>
        <mxCell id="wIbjY3GxIgkLPjTaqCq6-20" style="edgeStyle=none;curved=1;rounded=0;orthogonalLoop=1;jettySize=auto;html=1;exitX=0;exitY=0.75;exitDx=0;exitDy=0;entryX=1.005;entryY=0.728;entryDx=0;entryDy=0;entryPerimeter=0;fontSize=12;startSize=8;endSize=8;" edge="1" parent="1" source="h9SOfSR982c2kOE_p3fW-1" target="wIbjY3GxIgkLPjTaqCq6-7">
          <mxGeometry relative="1" as="geometry" />
        </mxCell>
        <mxCell id="wIbjY3GxIgkLPjTaqCq6-21" value="&lt;span style=&quot;font-size: 12px;&quot;&gt;seÃ±al a enviar&lt;/span&gt;" style="edgeLabel;html=1;align=center;verticalAlign=middle;resizable=0;points=[];fontSize=16;" vertex="1" connectable="0" parent="wIbjY3GxIgkLPjTaqCq6-20">
          <mxGeometry x="0.4072" relative="1" as="geometry">
            <mxPoint x="15" y="-20" as="offset" />
          </mxGeometry>
        </mxCell>
        <mxCell id="wIbjY3GxIgkLPjTaqCq6-22" style="edgeStyle=none;curved=1;rounded=0;orthogonalLoop=1;jettySize=auto;html=1;exitX=0;exitY=0.75;exitDx=0;exitDy=0;entryX=1.005;entryY=0.728;entryDx=0;entryDy=0;entryPerimeter=0;fontSize=12;startSize=8;endSize=8;" edge="1" parent="1">
          <mxGeometry relative="1" as="geometry">
            <mxPoint x="39" y="576" as="sourcePoint" />
            <mxPoint x="-38" y="575" as="targetPoint" />
          </mxGeometry>
        </mxCell>
        <mxCell id="wIbjY3GxIgkLPjTaqCq6-23" value="&lt;span style=&quot;font-size: 12px;&quot;&gt;enviar seÃ±al&lt;/span&gt;" style="edgeLabel;html=1;align=center;verticalAlign=middle;resizable=0;points=[];fontSize=16;" vertex="1" connectable="0" parent="wIbjY3GxIgkLPjTaqCq6-22">
          <mxGeometry x="0.4072" relative="1" as="geometry">
            <mxPoint x="15" y="-20" as="offset" />
          </mxGeometry>
        </mxCell>
        <mxCell id="wIbjY3GxIgkLPjTaqCq6-25" value="&lt;font style=&quot;font-size: 24px;&quot;&gt;TOP&lt;/font&gt;" style="text;html=1;align=center;verticalAlign=middle;resizable=0;points=[];autosize=1;strokeColor=none;fillColor=none;fontSize=16;" vertex="1" parent="1">
          <mxGeometry x="220" y="230" width="70" height="40" as="geometry" />
        </mxCell>
        <mxCell id="wIbjY3GxIgkLPjTaqCq6-26" value="" style="endArrow=classic;html=1;rounded=0;fontSize=12;startSize=8;endSize=8;curved=1;entryX=0.082;entryY=0.997;entryDx=0;entryDy=0;entryPerimeter=0;dashed=1;" edge="1" parent="1" target="wIbjY3GxIgkLPjTaqCq6-7">
          <mxGeometry width="50" height="50" relative="1" as="geometry">
            <mxPoint x="-370" y="770" as="sourcePoint" />
            <mxPoint x="170" y="610" as="targetPoint" />
          </mxGeometry>
        </mxCell>
        <mxCell id="wIbjY3GxIgkLPjTaqCq6-27" value="" style="endArrow=classic;html=1;rounded=0;fontSize=12;startSize=8;endSize=8;curved=1;exitX=0.05;exitY=0.902;exitDx=0;exitDy=0;exitPerimeter=0;entryX=0.082;entryY=0.997;entryDx=0;entryDy=0;entryPerimeter=0;dashed=1;" edge="1" parent="1">
          <mxGeometry width="50" height="50" relative="1" as="geometry">
            <mxPoint x="60" y="771" as="sourcePoint" />
            <mxPoint x="60" y="630" as="targetPoint" />
          </mxGeometry>
        </mxCell>
        <mxCell id="wIbjY3GxIgkLPjTaqCq6-28" value="" style="endArrow=classic;html=1;rounded=0;fontSize=12;startSize=8;endSize=8;curved=0;entryX=0.082;entryY=0.997;entryDx=0;entryDy=0;entryPerimeter=0;dashed=1;" edge="1" parent="1">
          <mxGeometry width="50" height="50" relative="1" as="geometry">
            <mxPoint x="-370" y="770" as="sourcePoint" />
            <mxPoint x="500" y="440" as="targetPoint" />
            <Array as="points">
              <mxPoint x="500" y="770" />
            </Array>
          </mxGeometry>
        </mxCell>
        <mxCell id="wIbjY3GxIgkLPjTaqCq6-29" value="CLK &amp;amp; RESET_N" style="text;html=1;strokeColor=none;fillColor=none;align=center;verticalAlign=middle;whiteSpace=wrap;rounded=0;fontSize=16;" vertex="1" parent="1">
          <mxGeometry x="-380" y="780" width="90" height="30" as="geometry" />
        </mxCell>
      </root>
    </mxGraphModel>
  </diagram>
</mxfile>
